<?xml version="1.0" encoding="utf-8"?>
<!-- Generator: Adobe Illustrator 26.5.0, SVG Export Plug-In . SVG Version: 6.00 Build 0)  -->
<svg version="1.1" id="Layer_1" xmlns="http://www.w3.org/2000/svg" xmlns:xlink="http://www.w3.org/1999/xlink" x="0px" y="0px"
	 viewBox="0 0 288.52 118.43" style="enable-background:new 0 0 288.52 118.43;" xml:space="preserve">
<style type="text/css">
	.st0{fill:#D31823;}
	.st1{fill:#444D58;}
	.st2{fill:#D31417;}
	.st3{fill:#D11417;}
	.st4{fill:#FFFFFF;}
	.st5{fill:#FDFDFC;}
	.st6{fill:#FFFDFD;}
	.st7{fill:#FDFCFC;}
</style>
<g>
	<g>
		<g>
			<path class="st0" d="M58.42,64.63c-1.1-0.09-1.86,0.59-1.88,1.71c-0.02,1,0.64,1.65,1.66,1.7c1.05,0.05,1.57-0.63,1.81-1.57
				C59.94,65.43,59.4,64.71,58.42,64.63z"/>
			<path class="st1" d="M63.6,62.85c-0.58-0.82-0.33-1.38,0.29-1.93c1.37-1.2,0-1.59-0.67-2.08c-0.66-0.48-1.48-1.31-2.04,0.2
				c-0.26,0.69-0.53,1.29-1.61,1.04c-0.97-0.23-1.24-0.68-1.19-1.52c0.09-1.42-0.69-1.41-1.71-1.08c-0.86,0.27-2.19,0.17-1.46,1.72
				c0.39,0.83,0.26,1.31-0.53,1.84c-0.76,0.51-1.26,0.32-1.73-0.25c-1.03-1.27-1.57-0.43-2.13,0.45c-0.5,0.8-1.39,1.68,0.23,2.21
				c0.95,0.31,1.01,0.92,0.9,1.74c-0.12,0.91-0.71,1.08-1.44,1.01c-1.46-0.14-1.42,0.78-1.14,1.7c0.23,0.78,0.03,2.23,1.68,1.5
				c0.73-0.32,1.29-0.45,1.86,0.43c0.56,0.86,0.34,1.36-0.3,1.89c-1.18,0.98-0.32,1.53,0.47,1.98c0.73,0.42,1.61,1.58,2.23-0.12
				c0.31-0.82,0.76-1.19,1.68-1c0.96,0.2,1.16,0.83,1.12,1.65c-0.04,0.88,0.32,1.26,1.57,0.92c0.29-0.48,2.34,0.48,1.61-1.61
				c-0.28-0.79-0.39-1.29,0.44-1.88c0.97-0.69,1.46-0.21,2.04,0.42c1.01,1.11,1.45,0.02,1.81-0.59c0.36-0.62,1.63-1.36,0.12-2.12
				c-0.77-0.38-1.39-0.69-1.2-1.8c0.19-1.09,0.89-1.04,1.64-1.06c1.53-0.04,1.13-1.09,0.93-1.91c-0.19-0.75-0.11-2.06-1.57-1.37
				C64.73,63.61,64.18,63.67,63.6,62.85z M58.36,70.58c-2.31,0.06-4.3-1.9-4.3-4.25c0-2.29,1.8-4.15,4.08-4.19
				c2.4-0.05,4.29,1.8,4.29,4.19C62.42,68.62,60.6,70.52,58.36,70.58z"/>
			<path class="st1" d="M74.85,64.72c0-1.24-0.37-1.95-1.87-1.66c-2.11,0.41-1.65-1.69-2.33-2.65c-0.46-0.65-0.84-1.54,0.25-2.08
				c1.72-0.85,1.03-1.77,0.11-2.69c-0.79-0.79-1.63-1.55-2.41-2.35c-0.88-0.89-1.64-0.95-2.2,0.29c-0.56,1.24-1.46,0.89-2.18,0.37
				c-0.95-0.69-3.15-0.19-2.65-2.28c0.36-1.54-0.3-1.84-1.49-1.89c-1.12-0.05-2.25-0.11-3.36-0.03c-1.11,0.08-2.16,0.12-1.73,1.93
				c0.48,2.05-1.71,1.59-2.68,2.27c-0.64,0.45-1.47,0.92-2.02-0.23c-0.82-1.71-1.76-1.08-2.7-0.13c-0.79,0.79-1.55,1.63-2.36,2.4
				c-0.92,0.88-0.95,1.6,0.26,2.19c1.16,0.57,0.92,1.46,0.37,2.22c-0.68,0.95-0.2,3.08-2.32,2.62c-1.5-0.32-1.86,0.36-1.86,1.6
				c0,1.2-0.01,2.4,0.02,3.59c0.03,1.16,0.41,1.89,1.78,1.37c1.04-0.39,1.6,0.2,1.72,1.13c0.16,1.19,2.07,2.4,0.44,3.5
				c-1.72,1.16-0.98,1.94-0.06,2.89c0.83,0.86,1.73,1.66,2.59,2.49c0.69,0.66,1.28,0.63,1.75-0.23c1.12-2.08,2.4-0.44,3.59-0.13
				c1.09,0.29,1.96,0.78,1.4,2.19c-0.39,0.98,0.13,1.37,1.05,1.44c0.75,0.05,1.5,0.09,2.26,0.14c1.6-0.24,3.91,0.76,3.35-2.66
				c-0.18-1.13,1.98-1.16,3.01-1.8c0.68-0.42,1.32-0.29,1.69,0.46c0.76,1.54,1.64,1.1,2.56,0.2c0.8-0.79,1.59-1.58,2.37-2.39
				c0.8-0.84,1.24-1.61-0.18-2.37c-1.76-0.93-0.31-2.08,0.02-3.02c0.29-0.81,0.27-2.37,1.94-1.78c1.57,0.56,1.8-0.42,1.86-1.56
				C74.88,66.97,74.86,65.84,74.85,64.72z M58.2,76.62c-5.65,0-10.26-4.64-10.26-10.34c0-5.62,4.74-10.31,10.35-10.27
				c5.67,0.04,10.29,4.71,10.27,10.37C68.54,72.04,63.91,76.62,58.2,76.62z"/>
		</g>
	</g>
	<g>
		<g>
			<g>
				<path class="st1" d="M30.66,48.47h4.29v32.67h-4.47V56.67l0.22,1.44L22.66,76.6h-3.19l-8.04-18.04l0.22-1.89v24.47H7.19V48.47
					h4.29l9.59,21.57L30.66,48.47z"/>
				<path class="st1" d="M79.66,57.81h4.58v23.32h-4.58V57.81z M93.82,67c0-1.65-0.43-2.92-1.28-3.82c-0.85-0.9-2.05-1.35-3.59-1.35
					c-1.5,0-2.65,0.4-3.47,1.19c-0.82,0.79-1.22,1.91-1.22,3.35l-0.47-4.49c0.72-1.41,1.66-2.49,2.82-3.26s2.44-1.15,3.85-1.15
					c2.53,0,4.49,0.83,5.88,2.48c1.39,1.65,2.08,4,2.08,7.02v14.15h-4.58V67z"/>
				<path class="st1" d="M106.37,79.68c-1.42-1.19-2.13-3-2.13-5.43c0-2.31,0.65-4.04,1.95-5.19c1.3-1.15,3.27-1.73,5.91-1.73h6.63
					l0.31,3.68h-6.92c-1.2,0-2.09,0.27-2.68,0.8c-0.59,0.53-0.89,1.34-0.89,2.44c0,1.18,0.39,2.06,1.18,2.63
					c0.79,0.57,1.98,0.85,3.58,0.85c1.75,0,3.06-0.19,3.92-0.56c0.86-0.37,1.29-0.96,1.29-1.75l0.47,3.28
					c-0.4,0.63-0.9,1.15-1.49,1.55c-0.59,0.4-1.28,0.71-2.06,0.91c-0.78,0.2-1.66,0.3-2.63,0.3
					C109.95,81.47,107.8,80.87,106.37,79.68z M118.53,66.35c0-1.53-0.41-2.71-1.22-3.56c-0.82-0.85-1.97-1.27-3.47-1.27
					c-0.93,0-1.84,0.14-2.73,0.43c-0.89,0.29-1.68,0.68-2.37,1.19l-3.35-2.29c0.88-1.06,2.05-1.89,3.49-2.48
					c1.45-0.59,3.05-0.89,4.82-0.89c1.93,0,3.59,0.34,4.96,1.02c1.38,0.68,2.43,1.67,3.15,2.97c0.72,1.3,1.08,2.86,1.08,4.68v14.99
					h-4.36V66.35z"/>
				<path class="st1" d="M132.87,80.43c-1.21-0.74-2.12-1.82-2.75-3.25s-0.94-3.13-0.94-5.12v-5.14c0-2.01,0.31-3.72,0.92-5.15
					c0.61-1.42,1.51-2.5,2.68-3.25s2.59-1.11,4.23-1.11c1.38,0,2.64,0.36,3.79,1.08s2.07,1.73,2.77,3.03l-0.47,4.76
					c0-0.99-0.18-1.83-0.54-2.54s-0.88-1.24-1.56-1.61s-1.51-0.55-2.48-0.55c-1.51,0-2.68,0.47-3.52,1.42
					c-0.83,0.94-1.25,2.27-1.25,3.98v5.08c0,1.69,0.42,3,1.25,3.92c0.83,0.92,2,1.38,3.52,1.38c0.97,0,1.8-0.19,2.48-0.57
					c0.68-0.38,1.2-0.93,1.56-1.65c0.36-0.72,0.54-1.58,0.54-2.58l0.31,4.92c-0.46,1.15-1.22,2.12-2.28,2.9
					c-1.06,0.78-2.36,1.17-3.9,1.17C135.54,81.54,134.08,81.17,132.87,80.43z M132.96,89.64c-1.39-0.65-2.46-1.57-3.22-2.75
					l3.1-2.81c0.6,0.82,1.31,1.46,2.15,1.91c0.83,0.45,1.7,0.67,2.62,0.67c1.75,0,3.11-0.48,4.07-1.45c0.96-0.97,1.44-2.33,1.44-4.1
					v-23.3h4.58v22.62c0,2.14-0.39,3.98-1.18,5.5c-0.79,1.53-1.93,2.69-3.43,3.48s-3.3,1.19-5.41,1.19
					C135.92,90.61,134.35,90.29,132.96,89.64z"/>
				<path class="st1" d="M158.68,80.26c-1.53-0.81-2.69-2-3.49-3.56c-0.8-1.56-1.2-3.46-1.2-5.67V68.4c0-2.31,0.39-4.28,1.16-5.91
					c0.77-1.63,1.89-2.88,3.36-3.73c1.47-0.85,3.23-1.28,5.3-1.28c1.95,0,3.61,0.49,4.99,1.46c1.38,0.97,2.43,2.38,3.16,4.22
					c0.73,1.84,1.09,4.05,1.09,6.63v1.53h-15.73v-3.68h11.37c-0.14-1.9-0.63-3.38-1.47-4.44c-0.85-1.06-1.98-1.58-3.4-1.58
					c-1.74,0-3.08,0.57-4.03,1.71c-0.95,1.14-1.43,2.75-1.43,4.83v2.97c0,1.93,0.51,3.41,1.53,4.45c1.02,1.03,2.46,1.55,4.34,1.55
					c0.93,0,1.85-0.19,2.76-0.56c0.91-0.37,1.73-0.9,2.45-1.57l3.01,3.01c-1.15,1.11-2.45,1.97-3.89,2.57
					c-1.44,0.61-2.88,0.91-4.34,0.91C162.05,81.47,160.2,81.07,158.68,80.26z"/>
				<path class="st1" d="M179.32,57.81h4.58v23.32h-4.58V57.81z M193.25,67c0-1.65-0.4-2.92-1.21-3.82
					c-0.81-0.9-1.95-1.35-3.44-1.35c-1.5,0-2.65,0.4-3.47,1.19c-0.82,0.79-1.22,1.91-1.22,3.35l-0.47-4.49
					c0.72-1.41,1.66-2.49,2.82-3.26s2.44-1.15,3.85-1.15c1.63,0,3.03,0.37,4.18,1.11s2.03,1.82,2.64,3.25
					c0.61,1.42,0.91,3.14,0.91,5.15v14.15h-4.58V67z M207.18,67c0-1.65-0.43-2.92-1.28-3.82c-0.85-0.9-2.05-1.35-3.59-1.35
					c-1.42,0-2.52,0.43-3.3,1.3c-0.78,0.87-1.17,2.1-1.17,3.68l-0.92-4.49c0.73-1.54,1.7-2.74,2.91-3.58
					c1.21-0.85,2.53-1.27,3.99-1.27c1.68,0,3.11,0.37,4.3,1.11c1.19,0.74,2.1,1.82,2.72,3.25c0.62,1.42,0.93,3.14,0.93,5.15v14.15
					h-4.58V67z"/>
				<path class="st1" d="M222.75,80.26c-1.53-0.81-2.69-2-3.49-3.56c-0.8-1.56-1.2-3.46-1.2-5.67V68.4c0-2.31,0.39-4.28,1.16-5.91
					c0.77-1.63,1.89-2.88,3.36-3.73c1.47-0.85,3.23-1.28,5.3-1.28c1.95,0,3.61,0.49,4.99,1.46c1.38,0.97,2.43,2.38,3.16,4.22
					c0.73,1.84,1.09,4.05,1.09,6.63v1.53h-15.73v-3.68h11.37c-0.14-1.9-0.63-3.38-1.47-4.44c-0.85-1.06-1.98-1.58-3.4-1.58
					c-1.74,0-3.08,0.57-4.03,1.71c-0.95,1.14-1.43,2.75-1.43,4.83v2.97c0,1.93,0.51,3.41,1.53,4.45c1.02,1.03,2.46,1.55,4.34,1.55
					c0.93,0,1.85-0.19,2.76-0.56c0.91-0.37,1.73-0.9,2.45-1.57l3.01,3.01c-1.15,1.11-2.45,1.97-3.89,2.57
					c-1.44,0.61-2.88,0.91-4.34,0.91C226.12,81.47,224.28,81.07,222.75,80.26z"/>
				<path class="st1" d="M243.4,57.81h4.58v23.32h-4.58V57.81z M257.55,67c0-1.65-0.43-2.92-1.28-3.82
					c-0.85-0.9-2.05-1.35-3.59-1.35c-1.5,0-2.65,0.4-3.47,1.19c-0.82,0.79-1.22,1.91-1.22,3.35l-0.47-4.49
					c0.72-1.41,1.66-2.49,2.82-3.26c1.16-0.76,2.45-1.15,3.85-1.15c2.53,0,4.49,0.83,5.88,2.48c1.39,1.65,2.08,4,2.08,7.02v14.15
					h-4.58V67z"/>
				<path class="st1" d="M267.3,57.81h10.51v4.13H267.3V57.81z M271.02,79.68c-0.88-1.04-1.31-2.58-1.31-4.62V51.03h4.58v24.08
					c0,0.57,0.11,1.01,0.34,1.31c0.22,0.31,0.55,0.46,0.99,0.46h2.2v4.36h-2.65C273.28,81.25,271.89,80.73,271.02,79.68z"/>
			</g>
		</g>
	</g>
	<g>
		<g>
			<path class="st1" d="M229.86,94.63c1.38-0.01,3.37-0.06,4.75-0.07c0.22,0,0.4-0.02,0.4,0.3c-0.01,2.1-0.01,4.2-0.01,6.12
				c-1.32-1.24-4.4-4.23-4.77-4.4c-0.12-0.05-0.33-0.05-0.34-0.07c0,0,0.24,0,0.35-0.08c0.12-0.08,0.07-0.73,0.1-1.09
				C230.38,95.09,229.67,94.86,229.86,94.63z"/>
			<path class="st2" d="M229.1,96.57c-0.52,0.18-0.64,0.57-0.64,1.08c0.01,2.76,0,5.52,0.02,8.28c0,0.41-0.07,0.57-0.53,0.57
				c-10.47-0.01-20.93-0.01-31.4-0.01c-0.08,0-0.17-0.01-0.25-0.02c-0.13-0.17-0.07-0.36-0.07-0.55c0-3.55,0.01-7.11-0.02-10.66
				c0-0.53,0.16-0.65,0.67-0.65c10.9,0.01,21.81,0.01,32.71,0.01c0.77,0,0.87-0.1,0.82,0.81c-0.02,0.25,0.01,0.5-0.02,0.75
				c-0.01,0.07-0.04,0.14-0.07,0.21C229.95,96.67,229.48,96.36,229.1,96.57z"/>
			<path class="st2" d="M236.64,103.94c0.27,0.83,0.07,1.69,0.12,2.53c-1.97,0.01-3.93,0.01-5.9,0.02c-0.23,0-0.39-0.01-0.39-0.32
				c0.01-2.21,0.01-4.42,0.01-6.78c0.48,0.51,0.87,0.92,1.26,1.34c0.92,0.99,1.84,1.99,2.77,2.98
				C235.1,104.36,235.93,104.44,236.64,103.94z"/>
			<path class="st1" d="M198.43,112.02c-0.75,0-1.25-0.33-1.44-0.96c-0.04-0.14-0.22-0.32,0.04-0.41c0.18-0.06,0.3,0.04,0.37,0.23
				c0.23,0.66,0.78,0.68,1.34,0.61c0.31-0.04,0.58-0.21,0.61-0.55c0.03-0.36-0.25-0.49-0.55-0.56c-0.28-0.07-0.56-0.15-0.85-0.22
				c-0.52-0.12-0.91-0.39-0.9-0.96c0.02-0.57,0.44-0.81,0.95-0.93c0.66-0.16,1.39,0.13,1.6,0.66c0.06,0.14,0.18,0.32-0.03,0.42
				c-0.14,0.07-0.26-0.01-0.34-0.17c-0.3-0.58-0.83-0.47-1.32-0.4c-0.23,0.03-0.42,0.2-0.42,0.48c0,0.26,0.19,0.37,0.39,0.43
				c0.28,0.09,0.57,0.13,0.85,0.2c0.77,0.2,1.15,0.61,1.06,1.16C199.72,111.62,199.14,112.02,198.43,112.02z"/>
			<path class="st3" d="M276.98,92.61l1.36-0.03c0.08,0,0.15,0.06,0.15,0.13l0.01,1.51c0,0.07-0.06,0.13-0.14,0.13l-1.38,0
				c-0.08,0-0.15-0.06-0.14-0.13l0.01-1.49C276.84,92.66,276.9,92.61,276.98,92.61z"/>
			<path class="st1" d="M229.58,110.69c0,0.35-0.01,0.71,0,1.06c0.01,0.22-0.22,0.37-0.27,0.24c-0.22-0.54-0.48-0.09-0.66-0.03
				c-0.64,0.19-1.17-0.1-1.2-0.75c-0.03-0.54-0.01-1.08-0.01-1.63c0-0.14-0.04-0.31,0.19-0.32c0.27-0.01,0.23,0.19,0.23,0.34
				c0,0.46-0.01,0.92,0.01,1.38c0.01,0.34,0.1,0.64,0.51,0.66c0.41,0.02,0.69-0.17,0.72-0.6c0.03-0.46,0.02-0.92,0.04-1.37
				c0.01-0.17-0.07-0.41,0.24-0.4c0.31,0.01,0.2,0.26,0.21,0.42C229.59,110.02,229.58,110.35,229.58,110.69z"/>
			<path class="st1" d="M278.6,109.97c-0.19,0.07-0.35,0.07-0.49-0.13c-0.15-0.22-0.39-0.21-0.62-0.21
				c-0.21,0.01-0.39,0.08-0.44,0.28c-0.06,0.24,0.15,0.31,0.33,0.36c0.3,0.09,0.6,0.16,0.89,0.28c0.46,0.19,0.59,0.61,0.33,1.02
				c-0.38,0.61-1.59,0.59-1.93-0.05c-0.06-0.11-0.19-0.27-0.01-0.37c0.13-0.07,0.27-0.03,0.35,0.15c0.2,0.4,0.57,0.37,0.93,0.31
				c0.17-0.03,0.3-0.14,0.32-0.34c0.02-0.2-0.12-0.31-0.28-0.36c-0.29-0.1-0.6-0.17-0.89-0.27c-0.31-0.1-0.49-0.31-0.49-0.65
				c0.01-0.33,0.19-0.52,0.49-0.64C277.77,109.1,278.35,109.32,278.6,109.97z"/>
			<path class="st1" d="M268.32,110.96c0,0.25,0,0.5,0,0.75c0,0.14,0.02,0.3-0.21,0.3c-0.21,0-0.23-0.13-0.23-0.29
				c0-0.46,0.01-0.92-0.01-1.38c-0.02-0.38-0.1-0.72-0.6-0.71c-0.48,0.01-0.66,0.32-0.68,0.74c-0.03,0.44-0.01,0.88-0.01,1.32
				c0,0.13,0.04,0.31-0.18,0.33c-0.27,0.02-0.24-0.17-0.24-0.33c0-0.71,0-1.42,0-2.13c0-0.15,0.09-0.39,0.2-0.27
				c0.37,0.4,0.65-0.03,0.97-0.02c0.53,0.01,0.9,0.23,0.97,0.77c0.04,0.31,0.01,0.63,0.01,0.94
				C268.31,110.96,268.31,110.96,268.32,110.96z"/>
			<path class="st1" d="M238.36,108.41c0.15,0.3-0.2,0.83,0.42,0.92c0.05,0.01,0.09,0.19-0.02,0.26c-0.14,0.08-0.38,0-0.36,0.31
				c0.03,0.54,0.02,1.08,0.04,1.63c0,0.03,0.05,0.07,0.08,0.08c0.17,0.06,0.42,0.03,0.36,0.31c-0.03,0.15-0.21,0.1-0.33,0.1
				c-0.28,0-0.51-0.11-0.54-0.41c-0.04-0.44-0.01-0.88-0.04-1.31c-0.02-0.25,0.17-0.61-0.28-0.71c-0.03-0.01-0.04-0.1-0.06-0.16
				C238.14,109.29,237.74,108.49,238.36,108.41z"/>
			<path class="st1" d="M218.64,110.11c0-0.52,0-1.04,0-1.56c0-0.15-0.01-0.3,0.22-0.3c0.23,0,0.19,0.17,0.19,0.31
				c0,1.04,0,2.08,0,3.13c0,0.13,0.05,0.31-0.18,0.32c-0.27,0.02-0.23-0.18-0.23-0.34C218.64,111.16,218.64,110.63,218.64,110.11z"
				/>
			<path class="st1" d="M247.35,110.67c0,0.33,0,0.67,0,1c0,0.16,0.05,0.36-0.22,0.34c-0.23-0.01-0.18-0.18-0.19-0.32
				c0-0.71,0-1.42,0-2.12c0-0.14-0.04-0.31,0.19-0.31c0.28-0.01,0.22,0.2,0.22,0.35C247.35,109.96,247.35,110.32,247.35,110.67z"/>
			<path class="st1" d="M247.14,108.75c-0.2,0-0.2-0.13-0.2-0.26c0-0.14,0.03-0.24,0.2-0.24c0.21,0,0.21,0.14,0.21,0.29
				C247.35,108.71,247.26,108.76,247.14,108.75z"/>
			<path class="st1" d="M236.63,95.12c0,0,0.08-0.56,0.53-0.57c12.8-0.29,25.72,0.24,38.52-0.08c0.54-0.01,0.58-0.01,0.56,0.54
				c-0.01,0.52,0.02,1.04,0.02,1.57c0,0.49-0.03,0.4,0.44,0.4c0.46,0,1.03,0,1.45,0c0.24,0,0.34-0.08,0.34-0.23
				c0-0.43-0.02-1.19,0-1.56c0-0.05,0-0.51,0-0.6s0.1-0.11,0.23-0.11c0.24,0,0.26,0.06,0.26,0.18c0,0.1,0.06,7.66,0.16,11.25
				c0.01,0.4-0.03,0.58-0.51,0.59c-13.82,0.32-42-0.01-42-0.01L236.63,95.12z"/>
			<path class="st4" d="M246.2,99.91c0-1.13,0.01-2.26-0.01-3.39c-0.01-0.36,0.1-0.46,0.45-0.46c2.14,0.02,4.27,0.02,6.41,0
				c0.35,0,0.45,0.09,0.46,0.45c0.02,1.57,0.04,1.57-1.53,1.57c-1.09,0-2.18,0.01-3.27-0.01c-0.36-0.01-0.47,0.11-0.46,0.46
				c0.02,0.92,0.02,1.84,0,2.76c-0.01,0.39,0.15,0.44,0.48,0.44c1.42-0.01,2.85,0.01,4.27-0.02c0.4-0.01,0.53,0.09,0.53,0.51
				c0,1.51,0.01,1.51-1.47,1.51c-1.78,0-3.56-0.01-5.34,0.01c-0.39,0-0.54-0.08-0.53-0.51C246.22,102.13,246.2,101.02,246.2,99.91z"
				/>
			<path class="st4" d="M259.83,103.74c-1.04-0.02-2.1,0.12-3.1-0.29c-1.68-0.68-2.61-2.36-2.31-4.15c0.31-1.86,1.72-3.14,3.62-3.21
				c1.23-0.05,2.47,0,3.71-0.01c0.29,0,0.39,0.07,0.4,0.38c0.08,1.63,0.09,1.63-1.53,1.63c-0.75,0-1.51,0-2.26,0
				c-1.17,0.01-1.94,0.74-1.93,1.84c0.01,1.07,0.76,1.79,1.9,1.8c1.11,0.01,2.22,0.02,3.33-0.01c0.38-0.01,0.49,0.09,0.5,0.48
				c0.01,1.53,0.02,1.53-1.51,1.53C260.37,103.74,260.1,103.74,259.83,103.74z"/>
			<path class="st4" d="M240.41,100.89c0-0.77-0.02-1.55,0.01-2.32c0.01-0.38-0.07-0.52-0.48-0.49c-0.63,0.04-1.25,0-1.88,0.02
				c-0.3,0.01-0.43-0.05-0.44-0.4c-0.05-1.62-0.07-1.61,1.54-1.62c1.86,0,3.72,0.01,5.58-0.01c0.39,0,0.54,0.07,0.54,0.51
				c0,1.51,0.02,1.51-1.47,1.51c-1.35,0-1.35,0-1.35,1.37c0,1.27-0.01,2.55,0.01,3.82c0.01,0.35-0.08,0.46-0.44,0.47
				c-1.62,0.03-1.62,0.05-1.62-1.54C240.42,101.77,240.42,101.33,240.41,100.89C240.41,100.89,240.41,100.89,240.41,100.89z"/>
			<path class="st4" d="M271.07,99.9c0,1.13-0.01,2.26,0.01,3.38c0.01,0.34-0.08,0.46-0.45,0.47c-1.65,0.04-1.65,0.05-1.65-1.58
				c0-1.45,0-1.45-1.45-1.45c-0.04,0-0.08,0-0.13,0c-1.43,0-1.42,0-1.38-1.47c0.01-0.32,0.08-0.44,0.42-0.43
				c0.69,0.02,1.38-0.02,2.07,0.02c0.4,0.02,0.5-0.12,0.48-0.5c-0.03-0.6,0.01-1.21-0.01-1.82c-0.01-0.34,0.08-0.46,0.45-0.47
				c1.65-0.04,1.65-0.05,1.65,1.58C271.07,98.39,271.07,99.15,271.07,99.9z"/>
			<path class="st4" d="M265.35,99.97c0,1.11-0.01,2.22,0.01,3.32c0.01,0.36-0.11,0.45-0.46,0.45c-1.61,0.03-1.61,0.04-1.61-1.55
				c0-1.88,0.01-3.76-0.01-5.65c0-0.4,0.11-0.52,0.49-0.48c0.51,0.06,1.2-0.23,1.5,0.12c0.25,0.29,0.07,0.96,0.08,1.46
				c0,0.4,0,0.79,0,1.19C265.35,99.22,265.35,99.6,265.35,99.97C265.35,99.97,265.35,99.97,265.35,99.97z"/>
			<path class="st4" d="M274.28,95.83c1.45,0,1.45,0,1.45,1.44c0,1.32,0,1.33-1.38,1.32c-0.53-0.01-1.24,0.24-1.55-0.11
				c-0.26-0.3-0.08-0.99-0.08-1.51c-0.01-1.13,0-1.13,1.13-1.13C273.99,95.83,274.14,95.83,274.28,95.83z"/>
			<path class="st4" d="M251.22,100.73c-0.59,0-1.17-0.02-1.76,0.01c-0.38,0.02-0.54-0.06-0.54-0.5c0.02-1.14-0.01-1.14,1.15-1.14
				c0.96,0,1.93,0.01,2.89-0.01c0.33-0.01,0.48,0.05,0.48,0.43c0.02,1.2,0.04,1.2-1.15,1.2
				C251.93,100.73,251.57,100.73,251.22,100.73z"/>
			<path class="st4" d="M277.12,100.73c0,1.12,0,1.08-1.14,1.14c-0.65,0.04-0.85-0.18-0.75-0.78c0.04-0.24,0.04-0.51,0-0.75
				c-0.11-0.65,0.16-0.79,0.77-0.76C277.11,99.63,277.12,99.6,277.12,100.73z"/>
			<path class="st4" d="M273.83,99.62c0.65-0.2,0.83,0.09,0.78,0.75c-0.06,0.74-0.02,0.67-0.97,0.76c-0.81,0.08-0.63-0.38-0.69-0.85
				C272.85,99.51,273.29,99.54,273.83,99.62z"/>
			<path class="st4" d="M277.49,98.93c-0.87-0.03-0.73-0.09-0.78-0.67c-0.07-0.81,0.4-0.63,0.86-0.69c0.61-0.07,0.67,0.2,0.7,0.72
				C278.3,98.95,278.2,98.93,277.49,98.93z"/>
			<path class="st5" d="M227.19,96.57c0.11,0.67,0.11,1.34,0,2.01c-1.01,0.14-2.03,0.02-3.05,0.06c-0.56,0.02-1.12-0.06-1.68,0.05
				c-0.9,0.3-1.37,1.06-1.24,1.98c0.12,0.87,0.82,1.51,1.71,1.54c0.63,0.02,1.26-0.01,1.88,0.01c0.4,0.01,0.52-0.21,0.51-0.53
				c-0.01-0.29-0.13-0.5-0.49-0.48c-0.52,0.02-1.05-0.01-1.57,0.01c-0.31,0.01-0.43-0.1-0.39-0.39c0.05-0.41-0.07-0.84,0.07-1.25
				c1.41-0.1,2.83-0.1,4.24,0c0.15,1.45,0.03,2.91,0.07,4.37c0.01,0.29-0.17,0.28-0.37,0.28c-1.38,0-2.76,0.05-4.14-0.02
				c-1.95-0.09-3.47-1.63-3.58-3.53c-0.11-2.05,1.16-3.68,3.14-4.03c0.1-0.02,0.2-0.05,0.3-0.08c0.8-0.15,1.6-0.06,2.41-0.06
				C225.75,96.51,226.48,96.44,227.19,96.57z"/>
			<path class="st5" d="M201.36,103.09c0.23-0.46,0.48-0.92,0.69-1.4c0.1-0.24,0.27-0.23,0.45-0.23c0.46,0,0.92,0,1.45,0
				c-0.33-0.85-0.78-1.59-1.24-2.44c-0.57,1.05-1.09,2.04-1.62,3.02c-0.32,0.61-0.66,1.21-0.96,1.82c-0.13,0.25-0.27,0.38-0.57,0.37
				c-0.58-0.02-1.17-0.01-1.87-0.01c0.45-0.83,0.87-1.59,1.28-2.35c0.84-1.54,1.69-3.07,2.52-4.62c0.17-0.31,0.39-0.53,0.69-0.69
				c0.34-0.12,0.69-0.11,1.04,0c0.33,0.16,0.55,0.4,0.73,0.73c1.24,2.28,2.49,4.56,3.8,6.95c-1.06-0.17-2.24,0.49-2.77-0.92
				c-0.18-0.25-0.45-0.16-0.69-0.17C203.3,103.12,202.33,103.25,201.36,103.09z"/>
			<path class="st6" d="M210.51,96.58c0.13,1.65,0.05,3.29,0.04,4.94c0,0.54,0.1,0.75,0.7,0.72c1.15-0.06,2.3,0,3.45-0.02
				c0.38-0.01,0.49,0.09,0.5,0.48c0.01,1.54,0.02,1.54-1.5,1.53c-1.73-0.01-3.47-0.02-5.2-0.03c-0.12-0.15-0.07-0.32-0.07-0.48
				c0-2.21,0.01-4.43-0.01-6.64c0-0.42,0.09-0.62,0.55-0.57C209.47,96.56,210,96.43,210.51,96.58z"/>
			<path class="st7" d="M218.03,96.57c0.15,0.72,0.06,1.45,0.07,2.18c0.01,1.67-0.01,3.33,0,5c0,0.38-0.1,0.52-0.49,0.49
				c-0.52-0.04-1.04-0.02-1.56-0.03c-0.1-0.1-0.08-0.23-0.08-0.35c0-2.29,0-4.58,0-6.86c0-0.1,0-0.21,0.06-0.3
				c0.04-0.04,0.08-0.08,0.12-0.13C216.77,96.48,217.4,96.47,218.03,96.57z"/>
			<path class="st1" d="M209.17,109.25c-0.75-0.02-1.25,0.54-1.24,1.4c0.01,0.84,0.46,1.36,1.2,1.37c0.77,0.01,1.25-0.52,1.25-1.39
				C210.38,109.8,209.91,109.27,209.17,109.25z M209.15,111.64c-0.49,0.01-0.79-0.36-0.8-0.98c-0.01-0.63,0.27-1.01,0.76-1.02
				c0.49-0.02,0.84,0.36,0.86,0.95C209.98,111.2,209.65,111.64,209.15,111.64z"/>
			<path class="st1" d="M256.81,109.25c-0.73-0.01-1.22,0.51-1.24,1.33c-0.02,0.87,0.44,1.43,1.2,1.43c0.75,0.01,1.23-0.5,1.25-1.33
				C258.04,109.83,257.57,109.27,256.81,109.25z M256.75,111.64c-0.49-0.02-0.76-0.39-0.75-1.03c0.01-0.62,0.3-0.99,0.8-0.98
				c0.49,0.01,0.81,0.4,0.81,0.99C257.61,111.25,257.26,111.66,256.75,111.64z"/>
			<path class="st3" d="M278.82,91.66l0.94-0.02c0.06,0,0.1,0.04,0.1,0.09l0,1.04c0,0.05-0.04,0.09-0.1,0.09l-0.95,0
				c-0.06,0-0.1-0.04-0.1-0.09l0.01-1.03C278.72,91.7,278.76,91.66,278.82,91.66z"/>
			<path class="st3" d="M280.14,91.19l0.67-0.01c0.04,0,0.07,0.03,0.07,0.06l0,0.74c0,0.04-0.03,0.06-0.07,0.06l-0.68,0
				c-0.04,0-0.07-0.03-0.07-0.07l0.01-0.73C280.07,91.22,280.1,91.2,280.14,91.19z"/>
		</g>
		<g>
			<g>
				<path class="st1" d="M128.92,95.56h1.61v8.52h-1.61V95.56z M129.65,99.23h2.72c0.19,0,0.36-0.04,0.51-0.13s0.26-0.21,0.34-0.37
					s0.12-0.34,0.12-0.55c0-0.21-0.04-0.4-0.12-0.56s-0.19-0.29-0.34-0.38s-0.32-0.13-0.51-0.13h-2.72v-1.55h2.68
					c0.53,0,1,0.11,1.4,0.33s0.72,0.52,0.94,0.92s0.33,0.85,0.33,1.37s-0.11,0.98-0.33,1.37s-0.54,0.7-0.94,0.91
					s-0.87,0.32-1.4,0.32h-2.68V99.23z"/>
				<path class="st1" d="M137.3,103.86c-0.39-0.21-0.69-0.51-0.9-0.91s-0.31-0.87-0.31-1.43v-0.99c0-0.55,0.1-1.02,0.31-1.42
					s0.5-0.69,0.9-0.9s0.87-0.31,1.42-0.31s1.03,0.1,1.42,0.31s0.69,0.5,0.9,0.9s0.31,0.86,0.31,1.42v1.01
					c0,0.55-0.1,1.03-0.31,1.42s-0.5,0.69-0.9,0.9s-0.87,0.31-1.42,0.31S137.7,104.07,137.3,103.86z M139.48,102.34
					c0.18-0.19,0.27-0.46,0.27-0.8v-1.01c0-0.34-0.09-0.6-0.27-0.79s-0.43-0.28-0.76-0.28c-0.32,0-0.57,0.09-0.75,0.28
					s-0.27,0.45-0.27,0.79v1.01c0,0.34,0.09,0.61,0.26,0.8s0.43,0.28,0.75,0.28S139.3,102.53,139.48,102.34z"/>
				<path class="st1" d="M142.29,98h1.54l1.08,3.76l1.28-3.76h0.95l1.28,3.76L149.5,98h1.54l-1.88,6.08h-1.2l-1.31-3.97l-1.31,3.97
					h-1.2L142.29,98z"/>
				<path class="st1" d="M153.2,103.85c-0.42-0.21-0.73-0.52-0.95-0.93s-0.33-0.9-0.33-1.47v-0.69c0-0.6,0.1-1.12,0.31-1.54
					s0.51-0.75,0.91-0.97s0.88-0.33,1.45-0.33c0.53,0,0.99,0.13,1.37,0.4s0.67,0.65,0.86,1.16s0.3,1.12,0.3,1.83v0.4h-4.16v-1.08
					h2.7l-0.02-0.14c-0.04-0.35-0.15-0.62-0.33-0.81s-0.42-0.29-0.71-0.29c-0.39,0-0.69,0.12-0.9,0.35s-0.32,0.56-0.32,0.98v0.77
					c0,0.41,0.12,0.73,0.35,0.96s0.56,0.34,0.98,0.34c0.21,0,0.43-0.04,0.64-0.11s0.4-0.18,0.57-0.33l1.05,0.93
					c-0.32,0.29-0.67,0.51-1.07,0.67s-0.79,0.24-1.2,0.24C154.12,104.17,153.62,104.06,153.2,103.85z"/>
				<path class="st1" d="M158.53,98h1.72v6.08h-1.72V98z M161.66,99.52c-0.11-0.04-0.24-0.06-0.39-0.06c-0.32,0-0.58,0.1-0.75,0.31
					s-0.27,0.5-0.27,0.87l-0.12-1.58c0.17-0.36,0.39-0.65,0.65-0.85s0.56-0.3,0.88-0.3c0.25,0,0.48,0.04,0.69,0.12
					s0.38,0.2,0.54,0.35l-0.94,1.31C161.87,99.62,161.78,99.56,161.66,99.52z"/>
				<path class="st1" d="M164.76,103.85c-0.42-0.21-0.73-0.52-0.95-0.93s-0.33-0.9-0.33-1.47v-0.69c0-0.6,0.1-1.12,0.31-1.54
					s0.51-0.75,0.91-0.97s0.88-0.33,1.45-0.33c0.53,0,0.99,0.13,1.37,0.4s0.67,0.65,0.86,1.16s0.3,1.12,0.3,1.83v0.4h-4.16v-1.08
					h2.7l-0.02-0.14c-0.04-0.35-0.15-0.62-0.33-0.81s-0.42-0.29-0.71-0.29c-0.39,0-0.69,0.12-0.9,0.35s-0.32,0.56-0.32,0.98v0.77
					c0,0.41,0.12,0.73,0.35,0.96s0.56,0.34,0.98,0.34c0.21,0,0.43-0.04,0.64-0.11s0.4-0.18,0.57-0.33l1.05,0.93
					c-0.32,0.29-0.67,0.51-1.07,0.67s-0.79,0.24-1.2,0.24C165.67,104.17,165.17,104.06,164.76,103.85z"/>
				<path class="st1" d="M170.85,103.86c-0.31-0.21-0.54-0.51-0.7-0.9s-0.24-0.87-0.24-1.42v-0.97c0-0.56,0.08-1.04,0.24-1.44
					s0.39-0.7,0.7-0.91s0.67-0.31,1.1-0.31c0.32,0,0.62,0.1,0.89,0.29s0.48,0.47,0.65,0.82l-0.12,1.35c0-0.21-0.04-0.38-0.11-0.53
					s-0.17-0.25-0.31-0.33s-0.3-0.11-0.49-0.11c-0.3,0-0.53,0.1-0.7,0.31s-0.25,0.49-0.25,0.86v0.97c0,0.36,0.08,0.64,0.25,0.84
					s0.4,0.3,0.7,0.3c0.19,0,0.35-0.04,0.49-0.11s0.24-0.18,0.31-0.32s0.11-0.31,0.11-0.51l0.08,1.39
					c-0.12,0.33-0.32,0.59-0.57,0.77s-0.56,0.27-0.92,0.27C171.52,104.17,171.16,104.07,170.85,103.86z M173.37,95.56h1.61v8.52
					h-1.61V95.56z"/>
				<path class="st1" d="M179.89,95.56h1.61v8.52h-1.61V95.56z M180.6,102.54h2.72c0.37,0,0.65-0.09,0.85-0.27s0.3-0.43,0.3-0.75
					v-0.02c0-0.21-0.04-0.4-0.13-0.55s-0.22-0.27-0.4-0.35s-0.38-0.12-0.62-0.12h-2.72v-1.55h2.72c0.33,0,0.59-0.08,0.77-0.25
					s0.27-0.4,0.27-0.71c0-0.27-0.09-0.49-0.27-0.64s-0.44-0.23-0.77-0.23h-2.72v-1.55h2.77c0.55,0,1.02,0.09,1.41,0.27
					s0.69,0.45,0.89,0.79s0.3,0.76,0.3,1.25c0,0.33-0.07,0.63-0.2,0.88s-0.32,0.47-0.57,0.63s-0.55,0.28-0.9,0.33
					c0.38,0.05,0.7,0.17,0.96,0.34s0.47,0.41,0.61,0.69s0.21,0.62,0.21,0.99v0.02c0,0.49-0.1,0.91-0.31,1.25s-0.5,0.61-0.9,0.79
					s-0.86,0.27-1.42,0.27h-2.87V102.54z"/>
				<path class="st1" d="M186.88,98h1.51l2.04,5.29l-1.01,1.29L186.88,98z M192.5,98l-2.71,7.51c-0.1,0.28-0.23,0.5-0.38,0.66
					s-0.34,0.28-0.56,0.35s-0.49,0.11-0.82,0.11h-0.36v-1.56h0.36c0.17,0,0.32-0.04,0.43-0.11s0.2-0.2,0.26-0.37l2.26-6.57H192.5z"
					/>
			</g>
		</g>
	</g>
	<g>
		<g>
			<path class="st1" d="M6.92,10.13h6.16v32.67H6.92V10.13z M9.16,10.13h19.21v5.93H9.16V10.13z M9.16,23.9H25.9v5.93H9.16V23.9z"/>
			<path class="st1" d="M33.65,41.34c-1.42-1.19-2.13-3-2.13-5.43c0-2.31,0.65-4.04,1.95-5.19c1.3-1.15,3.27-1.73,5.91-1.73h6.63
				l0.31,3.68H39.4c-1.2,0-2.09,0.27-2.68,0.8c-0.59,0.53-0.89,1.34-0.89,2.44c0,1.18,0.39,2.06,1.18,2.63
				c0.79,0.57,1.98,0.85,3.58,0.85c1.75,0,3.06-0.19,3.92-0.56c0.86-0.37,1.29-0.96,1.29-1.75l0.47,3.28
				c-0.4,0.63-0.9,1.15-1.49,1.55c-0.59,0.4-1.28,0.71-2.06,0.91c-0.78,0.2-1.66,0.3-2.63,0.3C37.22,43.13,35.08,42.54,33.65,41.34z
				 M45.81,28.01c0-1.53-0.41-2.71-1.22-3.56c-0.82-0.85-1.97-1.27-3.47-1.27c-0.93,0-1.84,0.14-2.73,0.43
				c-0.89,0.28-1.68,0.68-2.37,1.19l-3.35-2.29c0.88-1.06,2.05-1.89,3.49-2.48c1.45-0.59,3.05-0.89,4.82-0.89
				c1.93,0,3.59,0.34,4.96,1.02c1.38,0.68,2.43,1.67,3.15,2.97c0.72,1.3,1.08,2.86,1.08,4.68v14.98h-4.36V28.01z"/>
			<path class="st1" d="M61.1,41.94c-1.51-0.79-2.66-1.95-3.45-3.46c-0.79-1.51-1.19-3.34-1.19-5.48v-3.84
				c0-2.11,0.4-3.92,1.19-5.41c0.79-1.5,1.94-2.64,3.45-3.43c1.5-0.79,3.32-1.18,5.45-1.18c1.21,0,2.36,0.15,3.43,0.44
				s2.03,0.72,2.89,1.27c0.85,0.55,1.56,1.23,2.13,2.02l-3.3,2.97c-0.66-0.75-1.43-1.33-2.31-1.73c-0.88-0.4-1.81-0.61-2.76-0.61
				c-1.77,0-3.14,0.49-4.11,1.48c-0.97,0.99-1.46,2.38-1.46,4.18V33c0,1.84,0.48,3.27,1.45,4.27c0.97,1,2.34,1.51,4.12,1.51
				c0.97,0,1.9-0.22,2.79-0.65c0.88-0.43,1.65-1.05,2.29-1.84l3.3,3.19c-0.58,0.78-1.3,1.44-2.16,1.99
				c-0.85,0.55-1.82,0.96-2.89,1.25s-2.21,0.43-3.4,0.43C64.42,43.13,62.6,42.73,61.1,41.94z"/>
			<path class="st1" d="M80.05,10.13h4.58v4.58h-4.58V10.13z M80.05,19.47h4.58v23.32h-4.58V19.47z"/>
			<path class="st1" d="M96.18,36.77c0,0.57,0.12,1.01,0.37,1.31s0.6,0.46,1.04,0.46h2.16v4.36h-2.7c-1.74,0-3.08-0.54-4.03-1.62
				c-0.95-1.08-1.43-2.6-1.43-4.56v-26.6h4.58V36.77z"/>
			<path class="st1" d="M104.92,10.13h4.58v4.58h-4.58V10.13z M104.92,19.47h4.58v23.32h-4.58V19.47z"/>
			<path class="st1" d="M114.67,19.47h10.51v4.13h-10.51V19.47z M118.38,41.34c-0.88-1.04-1.31-2.58-1.31-4.62V12.69h4.58v24.08
				c0,0.57,0.11,1.01,0.34,1.31c0.23,0.31,0.55,0.46,0.99,0.46h2.2v4.36h-2.65C120.64,42.91,119.26,42.39,118.38,41.34z"/>
			<path class="st1" d="M129,19.47h4.67l7.17,20.26l-2.54,4.96L129,19.47z M149.65,19.47l-9.93,28.78
				c-0.36,1.06-0.83,1.91-1.42,2.53c-0.58,0.62-1.3,1.07-2.16,1.34c-0.85,0.27-1.9,0.4-3.15,0.4h-0.92v-4.4H133
				c0.85,0,1.53-0.17,2.03-0.52s0.94-0.94,1.31-1.77l8.63-26.35H149.65z"/>
		</g>
	</g>
</g>
</svg>
